<svg width="65" height="52" viewBox="0 0 65 52" fill="none" xmlns="http://www.w3.org/2000/svg">
<g clip-path="url(#clip0_1_17)">
<path d="M54.4004 1.27256C53.1734 1.07872 51.2548 0.854767 48.1337 1.02979C37.977 1.99146 30.2497 5.86827 24.2129 10.3567C30.2006 5.52952 38.8666 0.386163 48.8857 0.0173015C55.8007 -0.201004 61.1024 1.79574 61.0308 4.96117C61.0308 4.95929 61.0289 4.95741 61.027 4.95552C61.027 5.81934 61.0628 7.69563 60.7688 9.89563C60.7688 9.89563 60.7688 9.88245 60.7726 9.85611C60.3938 12.7242 59.4571 16.1531 57.1596 18.5996C53.0754 22.9488 42.3495 26.5904 37.6679 28.0602C32.9844 29.5281 26.5613 31.5399 26.5613 31.5399C26.5613 31.5399 24.7105 32.1929 24.1658 33.0624C23.6211 33.9318 21.8438 37.0878 18.3401 37.9554C16.6628 38.3713 15.564 37.8274 15.3736 37.7559C14.8666 37.5621 14.3314 36.2391 16.1765 35.8025C17.8954 35.396 20.7488 34.9857 21.563 34.3816C22.6957 33.5423 23.1971 32.2663 23.1971 32.2663C23.1971 32.2663 23.6833 31.1917 22.4507 31.2086C21.2181 31.2256 16.4988 32.4394 13.6868 34.0146C12.6973 34.5529 10.2151 35.7291 8.81104 34.9161C7.8536 34.3609 7.7179 33.0981 7.83664 32.095C7.79706 33.6269 9.01458 34.0372 10.7693 33.4538C13.274 32.6201 22.266 24.1401 31.7405 20.7206C41.2149 17.3011 44.9429 17.845 51.6939 15.2347C55.731 13.6746 57.2237 10.4546 58.0247 8.33549C58.5656 6.90334 57.2632 6.66433 57.2632 6.66433C53.5183 5.70642 48.4484 5.77229 44.0948 6.42344C42.08 6.74902 41.0999 7.13105 39.1945 7.13105C37.2891 7.13105 33.5762 6.95038 31.6801 7.72951C17.7257 13.46 9.97202 27.2434 8.47556 30.119L8.71303 29.5638L10.9973 22.228C10.9973 22.228 11.2442 21.1214 12.4278 20.7488C13.0837 20.5418 14.7667 20.1541 15.5527 19.2809C17.9104 16.4184 20.468 13.8966 24.211 11.1132C30.2478 6.62481 38.1862 2.87597 48.341 1.9143C53.0358 1.65083 55.6556 1.95947 57.5799 2.60497C57.5799 2.60497 56.7713 1.65647 54.4004 1.28009V1.27256ZM65 43.8196H47.2535V44.2016H65V43.8196ZM17.7465 43.8196H0V44.2016H17.7465V43.8196ZM3.48484 47.2673H0V52.0004H0.52772V47.7566H2.95523V52.0004H3.48295V47.2673H3.48484ZM9.84009 50.6567L10.3998 52.0004H10.9841L8.95239 47.2673H8.75072L6.66246 52.0004H7.24107L7.81214 50.6567H9.83632H9.84009ZM9.63277 50.1674H8.02888L8.83931 48.2722L9.63277 50.1674ZM14.6668 49.9283H15.1757C15.5715 49.9283 15.9805 49.8775 16.3009 49.6141C16.5968 49.3694 16.7532 48.9798 16.7532 48.5978C16.7532 48.1781 16.5704 47.7622 16.218 47.5176C15.8731 47.2786 15.4509 47.2654 15.0419 47.2654H14.1372V51.9985H14.665V49.9265L14.6668 49.9283ZM14.6668 47.7566H14.9872C15.6035 47.7566 16.2255 47.813 16.2255 48.5846C16.2255 49.2621 15.7279 49.439 15.1437 49.439H14.665V47.7566H14.6668ZM21.4631 47.7566H22.6825V47.2673H19.7273V47.7566H20.9335V52.0004H21.4612V47.7566H21.4631ZM26.4614 49.2885V47.2673H25.9337V52.0004H26.4614V49.7778H28.8889V52.0004H29.4166V47.2673H28.8889V49.2885H26.4614ZM33.0371 52.0004H35.4948V51.5111H33.5649V49.7778H35.4383V49.2885H33.5649V47.7566H35.4948V47.2673H33.0371V52.0004ZM39.562 49.9283H40.0709C40.4667 49.9283 40.8757 49.8775 41.1961 49.6141C41.492 49.3694 41.6484 48.9798 41.6484 48.5978C41.6484 48.1781 41.4656 47.7622 41.115 47.5176C40.7682 47.2786 40.3479 47.2654 39.939 47.2654H39.0343V51.9985H39.562V49.9265V49.9283ZM39.562 47.7566H39.8824C40.4987 47.7566 41.1207 47.813 41.1207 48.5846C41.1207 49.2621 40.625 49.439 40.0389 49.439H39.5601V47.7566H39.562ZM48.0866 51.5111V47.2673H47.5589V51.5111H45.5724V47.2673H45.0447V52.0004H50.6027V47.2673H50.075V51.5111H48.0885H48.0866ZM57.7307 52.0004V47.2673H57.5667L54.7811 50.7827V47.2673H54.2534V52.0004H54.4173L57.2029 48.5037V52.0004H57.7307ZM64.8605 47.2673H61.3776V52.0004H61.9053V47.7566H64.3328V52.0004H64.8605V47.2673ZM21.8193 45.5622V46.3602H22.1454V45.2592H21.8156V42.6377H21.4895V45.2592H19.9912V42.6377H19.6651V45.5622H21.8193ZM24.0829 45.5622H25.6001V45.2592H24.407V44.1884H25.5643V43.8854H24.407V42.9388H25.6001V42.6358H24.0829V45.5603V45.5622ZM28.1293 43.8873V42.6396H27.8033V45.5641H28.1293V44.1922H29.6277V45.5641H29.9538V42.6396H29.6277V43.8873H28.1293ZM33.0183 42.9407H33.7722V42.6377H31.9478V42.9407H32.6941V45.5622H33.0202V42.9407H33.0183ZM36.0904 44.2825H36.4051C36.6501 44.2825 36.9027 44.2505 37.1006 44.0887C37.2834 43.9381 37.3795 43.6972 37.3795 43.4601C37.3795 43.2004 37.2664 42.9444 37.0497 42.7939C36.8367 42.6471 36.5766 42.6377 36.3241 42.6377H35.7662V45.5622H36.0923V44.2825H36.0904ZM36.0904 42.9407H36.2883C36.669 42.9407 37.0535 42.9764 37.0535 43.4526C37.0535 43.8722 36.7463 43.9795 36.3863 43.9795H36.0923V42.9407H36.0904ZM40.8776 44.7323L41.2225 45.5622H41.5843L40.3291 42.6377H40.2047L38.9156 45.5622H39.2737L39.6261 44.7323H40.8757H40.8776ZM40.7494 44.4293H39.7599L40.2612 43.2587L40.7513 44.4293H40.7494ZM43.7781 42.6377V44.5535C43.7781 44.9713 43.6726 45.2743 43.3051 45.2743H43.273V45.5622H43.3578C43.8592 45.5622 44.1042 45.2047 44.1042 44.6476V42.9426H45.2294V45.5641H45.5554V42.6396H43.7762L43.7781 42.6377Z" fill="#959595"/>
</g>
<defs>
<clipPath id="clip0_1_17">
<rect width="65" height="52" fill="white"/>
</clipPath>
</defs>
</svg>
